<svg viewBox="0 5 95 90.11319999999999" version="1.1" xmlns="http://www.w3.org/2000/svg" style="max-height: 500px" width="95" height="90.11319999999999">
 <path fill-rule="evenodd" d="m63.012 20.242c2.4219-0.89844 4.332-2.8086 5.2305-5.2305l2.9922-8.0859c0.94922-2.5664 4.582-2.5664 5.5312 0l2.9922 8.0859c0.89844 2.4219 2.8086 4.332 5.2305 5.2305l8.0859 2.9922c2.5664 0.94922 2.5664 4.582 0 5.5312l-8.0859 2.9922c-2.4219 0.89844-4.332 2.8086-5.2305 5.2305l-2.9922 8.0859c-0.94922 2.5664-4.582 2.5664-5.5312 0l-2.9922-8.0859c-0.89844-2.4219-2.8086-4.332-5.2305-5.2305l-8.0859-2.9922c-2.5664-0.94922-2.5664-4.582 0-5.5312zm4.25 5.7578c2.8828-1.5 5.2383-3.8555 6.7383-6.7383 1.5 2.8828 3.8555 5.2383 6.7383 6.7383-2.8828 1.5-5.2383 3.8555-6.7383 6.7383-1.5-2.8828-3.8555-5.2383-6.7383-6.7383z"/>
 <path fill-rule="evenodd" d="m33.902 31.086c1.6133-4.3555 7.7695-4.3555 9.3789 0l4.5312 12.242c1.5195 4.1055 4.7578 7.3438 8.8633 8.8633l12.242 4.5312c4.3555 1.6094 4.3555 7.7695 0 9.3789l-12.242 4.5312c-4.1055 1.5195-7.3438 4.7578-8.8633 8.8633l-4.5312 12.242c-1.6094 4.3555-7.7656 4.3555-9.3789 0l-4.5312-12.242c-1.5195-4.1055-4.7539-7.3438-8.8594-8.8633l-12.246-4.5312c-4.3555-1.6094-4.3555-7.7695 0-9.3789l12.246-4.5312c4.1055-1.5195 7.3398-4.7539 8.8594-8.8633zm2.0352 14.672 2.6562-7.1758 2.6523 7.1758c2.2305 6.0234 6.9766 10.77 13 13l7.1758 2.6562-7.1758 2.6523c-6.0234 2.2305-10.77 6.9766-13 13l-2.6523 7.1758-2.6562-7.1758c-2.2305-6.0234-6.9766-10.77-13-13l-7.1758-2.6523 7.1758-2.6562c6.0234-2.2305 10.77-6.9766 13-13z"/>
<text fill="#000000" font-family="Arbeit Regular, Helvetica, Arial-Unicode, Arial, Sans-serif" font-weight="bold" font-size="5.0" y="117.5" x="0.0">Created by Styfico</text><text fill="#000000" font-family="Arbeit Regular, Helvetica, Arial-Unicode, Arial, Sans-serif" font-weight="bold" font-size="5.0" y="122.5" x="0.0">from Noun Project</text></svg>